# xmcd CD database file
#
# Track frame offsets:
#	150
#	13892
#	27527
#	40747
#	54160
#	67840
#	81897
#	86602
#	100705
#	104185
#	118022
#	132862
#	147105
#	158797
#	170405
#	182607
#	194777
#	202667
#	216712
#	224230
#	238712
#	240345
#	243290
#	257497
#	272362
#
# Disc length: 3828 seconds
#
# Revision: 0
# Processed by: cddbd v1.5.1PL0 Copyright (c) Steve Scherf et al.
# Submitted via: CDex 1.51
#
DISCID=660ef219
DTITLE=Charlie Parker - The Complete Charlie Parker On Savoy Years (Disc-1)
DYEAR=1995
DGENRE=Jazz
TTITLE0=TINY'S TEMPO SHORT TAKE.1
TTITLE1=TINY'S TEMPO SHORT TAKE.2
TTITLE2=TINY'S TEMPO ORIGINAL TAKE.3
TTITLE3=I'LL ALWAYS LOVE YOU JUST THE SAME TAKE.1
TTITLE4=I'LL ALWAYS LOVE YOU JUST THE SAME TAKE.2
TTITLE5=ROMANCE WITHOUT FINANCE TAKE.1
TTITLE6=ROMANCE WITHOUT FINANCE TAKE.2
TTITLE7=ROMANCE WITHOUT FINANCE TAKE.3
TTITLE8=ROMANCE WITHOUT FINANCE TAKE.4
TTITLE9=ROMANCE WITHOUT FINANCE TAKE.5
TTITLE10=RED CROSS SHORT TAKE.1
TTITLE11=RED CROSS ORIGINAL TAKE.2
TTITLE12=WARMING UP A RIFF ORIGINAL TAKE.1
TTITLE13=WARMING UP A RIFF ORIGINAL MASTER
TTITLE14=BILLIES BOUNCE ORIGINAL MASTER
TTITLE15=BILLIES BOUNCE NEW TAKE.1
TTITLE16=BILLIES BOUNCE SHORT TAKE.2
TTITLE17=BILLIES BOUNCE NEW TAKE.3
TTITLE18=BILLIES BOUNCE NEW TAKE.4
TTITLE19=BILLIES BOUNCE ORIGINAL TAKE.5
TTITLE20=NOW'S THE TIME TAKE.1
TTITLE21=NOW'S THE TIME TAKE.2
TTITLE22=NOW'S THE TIME TAKE.3
TTITLE23=NOW'S THE TIME TAKE.4
TTITLE24=NOW'S THE TIME TAKE.5
EXTD=YEAR: 1995
EXTT0=
EXTT1=
EXTT2=
EXTT3=
EXTT4=
EXTT5=
EXTT6=
EXTT7=
EXTT8=
EXTT9=
EXTT10=
EXTT11=
EXTT12=
EXTT13=
EXTT14=
EXTT15=
EXTT16=
EXTT17=
EXTT18=
EXTT19=
EXTT20=
EXTT21=
EXTT22=
EXTT23=
EXTT24=
PLAYORDER=
